<svg width="344" height="151" viewBox="0 0 344 151" fill="none" xmlns="http://www.w3.org/2000/svg">
<path d="M92.44 106V40.22H147.548C154.356 40.22 159.631 41.9373 163.372 45.372C167.175 48.8067 169.076 54.02 169.076 61.012C169.076 66.9613 167.696 71.6227 164.936 74.996C162.176 78.3693 158.251 80.4853 153.16 81.344L168.34 106H151.596L137.52 81.804H107.16V106H92.44ZM145.8 52.18H107.16V69.752L145.8 69.844C148.499 69.844 150.553 69.1693 151.964 67.82C153.436 66.4707 154.172 64.2013 154.172 61.012C154.172 57.7613 153.436 55.492 151.964 54.204C150.553 52.8547 148.499 52.18 145.8 52.18ZM180.128 106V40.404H194.848V67.176H216.744L238.364 40.404H256.672L229.624 73.156L256.672 106H238.364L216.652 79.136H194.848V106H180.128Z" fill="#65C8FF"/>
<rect x="5" y="5" width="334" height="141" rx="70.5" stroke="#EB2348" stroke-width="10"/>
<rect x="153" y="102" width="41" height="4" fill="#65C8FF"/>
</svg>
