<svg width="488" height="205" viewBox="0 0 488 205" fill="none" xmlns="http://www.w3.org/2000/svg">
<g clip-path="url(#clip0_45_7)">
<path d="M164.44 106V40.22H219.548C226.356 40.22 231.631 41.9373 235.372 45.372C239.175 48.8067 241.076 54.02 241.076 61.012C241.076 66.9613 239.696 71.6227 236.936 74.996C234.176 78.3693 230.251 80.4853 225.16 81.344L240.34 106H223.596L209.52 81.804H179.16V106H164.44ZM217.8 52.18H179.16V69.752L217.8 69.844C220.499 69.844 222.553 69.1693 223.964 67.82C225.436 66.4707 226.172 64.2013 226.172 61.012C226.172 57.7613 225.436 55.492 223.964 54.204C222.553 52.8547 220.499 52.18 217.8 52.18ZM252.128 106V40.404H266.848V67.176H288.744L310.364 40.404H328.672L301.624 73.156L328.672 106H310.364L288.652 79.136H266.848V106H252.128Z" fill="#65C8FF"/>
<path d="M340.5 5H147.5C108.564 5 77 36.5639 77 75.5C77 114.436 108.564 146 147.5 146H340.5C379.436 146 411 114.436 411 75.5C411 36.5639 379.436 5 340.5 5Z" stroke="#EB2348" stroke-width="10"/>
<path d="M266 102H225V106H266V102Z" fill="#65C8FF"/>
</g>
<path d="M12.845 175.075C15.015 175.075 16.6717 175.577 17.815 176.58C18.9583 177.56 19.53 179.018 19.53 180.955V185.225C19.53 187.208 18.97 188.713 17.85 189.74C16.7533 190.743 15.12 191.222 12.95 191.175L2.24 191V187.185H14.455C14.8283 187.185 15.015 186.998 15.015 186.625V179.625C15.015 179.252 14.8283 179.065 14.455 179.065H8.225C6.055 179.065 4.41 178.587 3.29 177.63C2.19333 176.673 1.645 175.203 1.645 173.22V169.09C1.645 167.153 2.21667 165.66 3.36 164.61C4.50333 163.537 6.16 163.023 8.33 163.07L18.515 163.245V167.06H6.72C6.34667 167.06 6.16 167.258 6.16 167.655V174.515C6.16 174.888 6.34667 175.075 6.72 175.075H12.845ZM33.4789 169.265V172.695H28.1939C27.8672 172.695 27.7039 172.858 27.7039 173.185L27.7389 191H23.5389L23.4689 169.58H27.2489L27.5639 171.75C28.0305 170.093 29.3255 169.265 31.4489 169.265H33.4789ZM41.4427 191.245C39.3194 191.245 37.7794 190.837 36.8227 190.02C35.8894 189.203 35.4227 187.827 35.4227 185.89V174.375C35.4227 172.438 35.8311 171.108 36.6477 170.385C37.4644 169.638 38.8644 169.265 40.8477 169.265H45.1527C47.1594 169.265 48.5827 169.638 49.4227 170.385C50.2861 171.108 50.7177 172.438 50.7177 174.375V182.74H39.6927V187.22C39.6927 187.523 39.8444 187.675 40.1477 187.675H50.1577V191.245H41.4427ZM40.1477 172.695C39.8444 172.695 39.6927 172.858 39.6927 173.185V179.66H46.4827V173.185C46.4827 172.858 46.3311 172.695 46.0277 172.695H40.1477ZM60.4466 191.245C58.3233 191.245 56.7833 190.837 55.8266 190.02C54.8933 189.203 54.4266 187.827 54.4266 185.89V174.375C54.4266 172.438 54.835 171.108 55.6516 170.385C56.4683 169.638 57.8683 169.265 59.8516 169.265H64.1566C66.1633 169.265 67.5866 169.638 68.4266 170.385C69.29 171.108 69.7216 172.438 69.7216 174.375V182.74H58.6966V187.22C58.6966 187.523 58.8483 187.675 59.1516 187.675H69.1616V191.245H60.4466ZM59.1516 172.695C58.8483 172.695 58.6966 172.858 58.6966 173.185V179.66H65.4866V173.185C65.4866 172.858 65.335 172.695 65.0316 172.695H59.1516ZM82.7887 191V163.245L94.4787 163.07C96.6487 163.023 98.282 163.513 99.3787 164.54C100.499 165.543 101.059 167.037 101.059 169.02V173.99C101.059 176.953 99.7753 178.832 97.2087 179.625C97.9087 180.115 98.492 181.037 98.9587 182.39L102.004 191H97.5587L94.0587 180.675C93.9887 180.465 93.907 180.325 93.8137 180.255C93.7437 180.162 93.592 180.115 93.3587 180.115H87.1987V191H82.7887ZM95.9837 166.92H87.1987V176.335H95.9837C96.357 176.335 96.5437 176.137 96.5437 175.74V167.48C96.5437 167.107 96.357 166.92 95.9837 166.92ZM109.729 191.315C107.979 191.315 106.695 190.977 105.879 190.3C105.085 189.6 104.689 188.363 104.689 186.59V183.44C104.689 181.573 105.109 180.278 105.949 179.555C106.812 178.808 108.235 178.435 110.219 178.435H115.714V173.57C115.714 173.267 115.562 173.115 115.259 173.115L105.984 173.15V169.545H114.314C116.32 169.522 117.767 169.907 118.654 170.7C119.54 171.47 119.984 172.823 119.984 174.76V191H116.169L115.819 188.585C115.632 189.495 115.224 190.183 114.594 190.65C113.987 191.093 113.112 191.315 111.969 191.315H109.729ZM115.714 187.885V181.515H109.344C109.04 181.515 108.889 181.667 108.889 181.97V187.395C108.889 187.722 109.04 187.885 109.344 187.885H115.714ZM134.062 169.265C135.439 169.265 136.524 169.475 137.317 169.895C138.111 170.315 138.647 171.027 138.927 172.03C139.347 170.187 140.677 169.265 142.917 169.265H144.877C146.651 169.265 147.934 169.615 148.727 170.315C149.544 171.015 149.952 172.252 149.952 174.025V191H145.717V173.185C145.717 172.858 145.566 172.695 145.262 172.695H139.627C139.324 172.695 139.172 172.858 139.172 173.185L139.137 173.325C139.161 173.558 139.172 173.792 139.172 174.025V191H134.902V173.185C134.902 172.858 134.751 172.695 134.447 172.695H128.742C128.439 172.695 128.287 172.858 128.287 173.185L128.357 191H124.087L124.052 169.58H127.832L128.147 171.75C128.614 170.093 129.909 169.265 132.032 169.265H134.062ZM158.093 191.315C156.343 191.315 155.059 190.977 154.243 190.3C153.449 189.6 153.053 188.363 153.053 186.59V183.44C153.053 181.573 153.473 180.278 154.313 179.555C155.176 178.808 156.599 178.435 158.583 178.435H164.078V173.57C164.078 173.267 163.926 173.115 163.623 173.115L154.348 173.15V169.545H162.678C164.684 169.522 166.131 169.907 167.018 170.7C167.904 171.47 168.348 172.823 168.348 174.76V191H164.533L164.183 188.585C163.996 189.495 163.588 190.183 162.958 190.65C162.351 191.093 161.476 191.315 160.333 191.315H158.093ZM164.078 187.885V181.515H157.708C157.404 181.515 157.253 181.667 157.253 181.97V187.395C157.253 187.722 157.404 187.885 157.708 187.885H164.078ZM181.81 191V163.245H186.22V175.075H191.925C192.088 175.075 192.193 175.04 192.24 174.97C192.286 174.877 192.345 174.748 192.415 174.585L197.21 163.245H201.62L197.28 173.29C196.836 174.317 196.44 175.122 196.09 175.705C195.763 176.265 195.308 176.685 194.725 176.965C195.378 177.222 195.891 177.642 196.265 178.225C196.661 178.808 197.116 179.625 197.63 180.675L202.67 191H197.98L192.415 179.345C192.345 179.182 192.286 179.065 192.24 178.995C192.193 178.925 192.076 178.89 191.89 178.89H186.22V191H181.81ZM215.315 169.265V172.695H210.03C209.703 172.695 209.54 172.858 209.54 173.185L209.575 191H205.375L205.305 169.58H209.085L209.4 171.75C209.866 170.093 211.161 169.265 213.285 169.265H215.315ZM218.029 165.765V161.845H222.299V165.765H218.029ZM218.029 191V169.58H222.299V191H218.029ZM226.858 191.105L226.823 187.675H236.273C236.6 187.675 236.763 187.523 236.763 187.22V182.285C236.763 181.958 236.6 181.795 236.273 181.795H232.038C230.032 181.795 228.597 181.433 227.733 180.71C226.893 179.963 226.473 178.657 226.473 176.79V174.48C226.473 172.543 226.917 171.19 227.803 170.42C228.713 169.627 230.16 169.242 232.143 169.265H239.843V172.835L231.233 172.8C230.93 172.8 230.778 172.963 230.778 173.29V177.98C230.778 178.307 230.93 178.47 231.233 178.47H235.433C237.44 178.47 238.863 178.832 239.703 179.555C240.543 180.255 240.963 181.55 240.963 183.44V186.38C240.963 188.153 240.555 189.39 239.738 190.09C238.945 190.767 237.662 191.105 235.888 191.105H226.858ZM254.628 169.265C256.401 169.265 257.696 169.615 258.513 170.315C259.33 171.015 259.738 172.252 259.738 174.025V191H255.468V173.185C255.468 172.858 255.316 172.695 255.013 172.695H248.888C248.585 172.695 248.433 172.858 248.433 173.185L248.468 191H244.233L244.198 161.53H248.433V171.26C248.993 169.93 250.241 169.265 252.178 169.265H254.628ZM274.593 169.265C276.343 169.265 277.626 169.615 278.443 170.315C279.26 171.015 279.668 172.252 279.668 174.025V191H275.433V173.185C275.433 172.858 275.281 172.695 274.978 172.695H268.853C268.526 172.695 268.363 172.858 268.363 173.185L268.398 191H264.198L264.128 169.58H267.908L268.223 171.75C268.69 170.093 269.985 169.265 272.108 169.265H274.593ZM288.01 191.315C286.26 191.315 284.976 190.977 284.16 190.3C283.366 189.6 282.97 188.363 282.97 186.59V183.44C282.97 181.573 283.39 180.278 284.23 179.555C285.093 178.808 286.516 178.435 288.5 178.435H293.995V173.57C293.995 173.267 293.843 173.115 293.54 173.115L284.265 173.15V169.545H292.595C294.601 169.522 296.048 169.907 296.935 170.7C297.821 171.47 298.265 172.823 298.265 174.76V191H294.45L294.1 188.585C293.913 189.495 293.505 190.183 292.875 190.65C292.268 191.093 291.393 191.315 290.25 191.315H288.01ZM293.995 187.885V181.515H287.625C287.321 181.515 287.17 181.667 287.17 181.97V187.395C287.17 187.722 287.321 187.885 287.625 187.885H293.995ZM311.517 191V163.245H327.232V167.06H315.927V175.04H326.462V178.82H315.927V187.185H327.477V191H311.517ZM341.722 169.265C343.472 169.265 344.755 169.615 345.572 170.315C346.389 171.015 346.797 172.252 346.797 174.025V191H342.562V173.185C342.562 172.858 342.41 172.695 342.107 172.695H335.982C335.655 172.695 335.492 172.858 335.492 173.185L335.527 191H331.327L331.257 169.58H335.037L335.352 171.75C335.819 170.093 337.114 169.265 339.237 169.265H341.722ZM361.999 195.585V188.97C361.765 189.763 361.345 190.358 360.739 190.755C360.132 191.128 359.304 191.315 358.254 191.315H355.804C354.054 191.315 352.77 190.977 351.954 190.3C351.16 189.6 350.764 188.363 350.764 186.59V174.445C350.764 172.578 351.184 171.272 352.024 170.525C352.887 169.778 354.31 169.428 356.294 169.475L366.269 169.58V194.29C366.269 196.227 365.79 197.603 364.834 198.42C363.9 199.237 362.384 199.645 360.284 199.645H351.429V196.075H361.544C361.847 196.075 361.999 195.912 361.999 195.585ZM355.419 187.885H361.544C361.847 187.885 361.999 187.722 361.999 187.395V173.045L355.419 173.01C355.115 173.01 354.964 173.162 354.964 173.465V187.395C354.964 187.722 355.115 187.885 355.419 187.885ZM370.143 191V186.065H374.273V191H370.143ZM392.47 191.315C390.696 191.315 389.39 190.977 388.55 190.3C387.733 189.6 387.325 188.363 387.325 186.59V163.245H391.805V186.905C391.805 187.208 391.945 187.36 392.225 187.36H398.945C399.225 187.36 399.365 187.208 399.365 186.905V163.245H403.635V186.905C403.635 187.208 403.798 187.36 404.125 187.36H410.845C411.148 187.36 411.3 187.208 411.3 186.905L411.265 163.245H415.71L415.745 186.555C415.745 188.328 415.336 189.565 414.52 190.265C413.726 190.965 412.455 191.315 410.705 191.315H406.05C403.576 191.315 402.06 190.463 401.5 188.76C400.963 190.463 399.458 191.315 396.985 191.315H392.47ZM420.73 174.585C420.73 172.648 421.196 171.283 422.13 170.49C423.063 169.673 424.591 169.265 426.715 169.265H430.53C432.676 169.265 434.216 169.673 435.15 170.49C436.083 171.283 436.55 172.648 436.55 174.585V185.995C436.55 187.932 436.083 189.308 435.15 190.125C434.216 190.918 432.676 191.315 430.53 191.315H426.715C424.591 191.315 423.063 190.918 422.13 190.125C421.196 189.308 420.73 187.932 420.73 185.995V174.585ZM425.49 172.8C425.163 172.8 425 172.963 425 173.29V187.29C425 187.617 425.163 187.78 425.49 187.78H431.825C432.128 187.78 432.28 187.617 432.28 187.29V173.29C432.28 172.963 432.128 172.8 431.825 172.8H425.49ZM450.915 169.265V172.695H445.63C445.304 172.695 445.14 172.858 445.14 173.185L445.175 191H440.975L440.905 169.58H444.685L445 171.75C445.467 170.093 446.762 169.265 448.885 169.265H450.915ZM453.489 191V161.53H457.689V178.05H461.959C462.123 178.05 462.228 178.015 462.274 177.945C462.344 177.875 462.403 177.758 462.449 177.595L464.934 169.58H469.064L467.069 176.16C466.789 177.093 466.521 177.84 466.264 178.4C466.008 178.937 465.681 179.357 465.284 179.66C465.984 179.87 466.521 180.278 466.894 180.885C467.268 181.468 467.653 182.343 468.049 183.51L470.709 191H466.404L463.254 182.075C463.208 181.888 463.149 181.76 463.079 181.69C463.033 181.62 462.928 181.585 462.764 181.585H457.689V191H453.489ZM472.679 191.105L472.644 187.675H482.094C482.42 187.675 482.584 187.523 482.584 187.22V182.285C482.584 181.958 482.42 181.795 482.094 181.795H477.859C475.852 181.795 474.417 181.433 473.554 180.71C472.714 179.963 472.294 178.657 472.294 176.79V174.48C472.294 172.543 472.737 171.19 473.624 170.42C474.534 169.627 475.98 169.242 477.964 169.265H485.664V172.835L477.054 172.8C476.75 172.8 476.599 172.963 476.599 173.29V177.98C476.599 178.307 476.75 178.47 477.054 178.47H481.254C483.26 178.47 484.684 178.832 485.524 179.555C486.364 180.255 486.784 181.55 486.784 183.44V186.38C486.784 188.153 486.375 189.39 485.559 190.09C484.765 190.767 483.482 191.105 481.709 191.105H472.679Z" fill="#EB2348"/>
<defs>
<clipPath id="clip0_45_7">
<rect width="344" height="151" fill="white" transform="translate(72)"/>
</clipPath>
</defs>
</svg>
