<svg width="326" height="224" viewBox="0 0 326 224" fill="none" xmlns="http://www.w3.org/2000/svg">
<path d="M87.88 126V123.06C92.92 123.06 95.86 122.127 96.7 120.26V49.84C95.86 47.9733 92.92 47.04 87.88 47.04V44.1H119.52C131.093 44.1 139.867 46.2 145.84 50.4C151.813 54.6 154.8 59.4067 154.8 64.82C154.8 69.9533 153.26 74.48 150.18 78.4C147.1 82.2267 142.527 85.0267 136.46 86.8L155.08 120.12C156.013 122.08 159.093 123.06 164.32 123.06V126H158.3C151.767 126 147.52 125.627 145.56 124.88C143.6 124.133 141.64 122.08 139.68 118.72L122.74 88.76H109.58V120.26C110.42 122.127 113.36 123.06 118.4 123.06V126H87.88ZM109.58 48.86V84H121.2C128.667 84 133.8 82.5533 136.6 79.66C139.4 76.7667 140.8 71.8667 140.8 64.96C140.8 59.8267 139.213 55.86 136.04 53.06C132.96 50.26 127.453 48.86 119.52 48.86H109.58ZM169.228 126V123.06C174.268 123.06 177.208 122.127 178.048 120.26V49.84C177.208 47.9733 174.268 47.04 169.228 47.04V44.1H199.468V47.04C194.428 47.04 191.488 47.9733 190.648 49.84V120.26C191.488 122.127 194.428 123.06 199.468 123.06V126H169.228ZM218.088 126V123.06C220.234 123.06 221.961 122.92 223.268 122.64L191.348 82.04L225.648 48.02C224.341 47.3667 221.961 47.04 218.508 47.04V44.1H240.488V47.04C236.568 47.04 233.674 48.1133 231.808 50.26L203.668 78.12L236.568 120.82C238.061 122.313 241.001 123.06 245.388 123.06V126H218.088Z" fill="#0C0097"/>
<rect x="163" y="123" width="7" height="3" fill="#0C0097"/>
<rect x="42" y="28" width="243" height="114" rx="57" stroke="#0C0097" stroke-width="6"/>
<path d="M36.2547 176.3C34.3347 176.3 32.5647 175.98 30.9447 175.34C29.3447 174.68 28.0947 173.78 27.1947 172.64C27.0347 172.44 26.9547 172.23 26.9547 172.01C26.9547 171.73 27.1047 171.46 27.4047 171.2C27.5647 171.08 27.7347 171.02 27.9147 171.02C28.2747 171.02 28.5947 171.19 28.8747 171.53C29.6947 172.43 30.7247 173.13 31.9647 173.63C33.2247 174.11 34.6547 174.35 36.2547 174.35C38.0147 174.35 39.3747 174.03 40.3347 173.39C41.2947 172.73 41.7747 171.8 41.7747 170.6C41.7747 169.56 41.3047 168.72 40.3647 168.08C39.4447 167.44 37.8747 166.87 35.6547 166.37C32.7547 165.73 30.6647 164.93 29.3847 163.97C28.1247 162.99 27.4947 161.7 27.4947 160.1C27.4947 158.44 28.1947 157.13 29.5947 156.17C31.0147 155.19 32.9247 154.7 35.3247 154.7C37.1447 154.7 38.7847 155.02 40.2447 155.66C41.7247 156.3 42.7747 157.16 43.3947 158.24C43.5147 158.44 43.5747 158.63 43.5747 158.81C43.5747 159.13 43.4047 159.41 43.0647 159.65C42.9247 159.73 42.7647 159.77 42.5847 159.77C42.1447 159.77 41.8047 159.6 41.5647 159.26C40.9847 158.42 40.1647 157.78 39.1047 157.34C38.0447 156.88 36.7847 156.65 35.3247 156.65C31.6247 156.65 29.7747 157.8 29.7747 160.1C29.7747 160.8 29.9647 161.39 30.3447 161.87C30.7247 162.33 31.3347 162.75 32.1747 163.13C33.0347 163.49 34.2247 163.85 35.7447 164.21C38.7047 164.91 40.8347 165.76 42.1347 166.76C43.4347 167.74 44.0847 169.02 44.0847 170.6C44.0847 172.36 43.3747 173.75 41.9547 174.77C40.5547 175.79 38.6547 176.3 36.2547 176.3ZM48.9346 176.3C48.5946 176.3 48.3246 176.2 48.1246 176C47.9446 175.78 47.8546 175.48 47.8546 175.1V162.2C47.8546 161.82 47.9446 161.53 48.1246 161.33C48.3046 161.11 48.5746 161 48.9346 161C49.2746 161 49.5346 161.11 49.7146 161.33C49.9146 161.53 50.0146 161.82 50.0146 162.2V164C51.3746 162.2 53.2546 161.3 55.6546 161.3H56.4046C56.7846 161.3 57.0846 161.39 57.3046 161.57C57.5246 161.73 57.6346 161.96 57.6346 162.26C57.6346 162.56 57.5246 162.79 57.3046 162.95C57.0846 163.11 56.7846 163.19 56.4046 163.19H55.5646C53.8646 163.19 52.5146 163.68 51.5146 164.66C50.5346 165.62 50.0446 166.93 50.0446 168.59V175.1C50.0446 175.46 49.9446 175.75 49.7446 175.97C49.5646 176.19 49.2946 176.3 48.9346 176.3ZM66.7762 176.3C64.1762 176.3 62.1662 175.63 60.7462 174.29C59.3262 172.95 58.6162 171.05 58.6162 168.59C58.6162 166.23 59.3362 164.38 60.7762 163.04C62.2162 161.68 64.1862 161 66.6862 161C68.2262 161 69.5962 161.25 70.7962 161.75C71.9962 162.23 72.9262 162.92 73.5862 163.82C74.2662 164.7 74.6062 165.71 74.6062 166.85C74.6062 167.69 74.3662 168.34 73.8862 168.8C73.4262 169.26 72.7862 169.49 71.9662 169.49H60.8662C60.8662 171.03 61.3862 172.24 62.4262 173.12C63.4662 173.98 64.9162 174.41 66.7762 174.41C67.9162 174.41 68.8962 174.29 69.7162 174.05C70.5362 173.79 71.3062 173.38 72.0262 172.82C72.4062 172.5 72.7162 172.34 72.9562 172.34C73.1362 172.34 73.3062 172.42 73.4662 172.58C73.7462 172.82 73.8862 173.07 73.8862 173.33C73.8862 173.53 73.7662 173.75 73.5262 173.99C72.7062 174.77 71.7462 175.35 70.6462 175.73C69.5462 176.11 68.2562 176.3 66.7762 176.3ZM71.3062 167.72C71.6662 167.72 71.9362 167.65 72.1162 167.51C72.2962 167.35 72.3862 167.07 72.3862 166.67C72.3862 165.95 72.1462 165.3 71.6662 164.72C71.1862 164.14 70.5062 163.69 69.6262 163.37C68.7662 163.05 67.7862 162.89 66.6862 162.89C64.9062 162.89 63.4962 163.33 62.4562 164.21C61.4362 165.07 60.9262 166.24 60.9262 167.72H71.3062ZM85.3504 176.3C82.7504 176.3 80.7404 175.63 79.3204 174.29C77.9004 172.95 77.1904 171.05 77.1904 168.59C77.1904 166.23 77.9104 164.38 79.3504 163.04C80.7904 161.68 82.7604 161 85.2604 161C86.8004 161 88.1704 161.25 89.3704 161.75C90.5704 162.23 91.5004 162.92 92.1604 163.82C92.8404 164.7 93.1804 165.71 93.1804 166.85C93.1804 167.69 92.9404 168.34 92.4604 168.8C92.0004 169.26 91.3604 169.49 90.5404 169.49H79.4404C79.4404 171.03 79.9604 172.24 81.0004 173.12C82.0404 173.98 83.4904 174.41 85.3504 174.41C86.4904 174.41 87.4704 174.29 88.2904 174.05C89.1104 173.79 89.8804 173.38 90.6004 172.82C90.9804 172.5 91.2904 172.34 91.5304 172.34C91.7104 172.34 91.8804 172.42 92.0404 172.58C92.3204 172.82 92.4604 173.07 92.4604 173.33C92.4604 173.53 92.3404 173.75 92.1004 173.99C91.2804 174.77 90.3204 175.35 89.2204 175.73C88.1204 176.11 86.8304 176.3 85.3504 176.3ZM89.8804 167.72C90.2404 167.72 90.5104 167.65 90.6904 167.51C90.8704 167.35 90.9604 167.07 90.9604 166.67C90.9604 165.95 90.7204 165.3 90.2404 164.72C89.7604 164.14 89.0804 163.69 88.2004 163.37C87.3404 163.05 86.3604 162.89 85.2604 162.89C83.4804 162.89 82.0704 163.33 81.0304 164.21C80.0104 165.07 79.5004 166.24 79.5004 167.72H89.8804ZM104.782 158.75C104.782 157.61 105.112 156.7 105.772 156.02C106.452 155.34 107.432 155 108.712 155H114.322C119.762 155 122.482 157.26 122.482 161.78C122.482 163.96 121.822 165.61 120.502 166.73C119.182 167.85 117.192 168.41 114.532 168.41L120.352 174.44C120.532 174.62 120.622 174.85 120.622 175.13C120.622 175.49 120.472 175.78 120.172 176C119.932 176.18 119.682 176.27 119.422 176.27C119.022 176.27 118.642 176.07 118.282 175.67L111.382 168.41H107.332V175.01C107.332 175.41 107.212 175.73 106.972 175.97C106.752 176.19 106.442 176.3 106.042 176.3C105.642 176.3 105.332 176.19 105.112 175.97C104.892 175.73 104.782 175.41 104.782 175.01V158.75ZM114.472 166.34C116.312 166.34 117.672 166 118.552 165.32C119.452 164.62 119.902 163.44 119.902 161.78C119.902 160.1 119.452 158.9 118.552 158.18C117.652 157.44 116.292 157.07 114.472 157.07H108.862C108.402 157.07 108.032 157.22 107.752 157.52C107.472 157.82 107.332 158.23 107.332 158.75V166.34H114.472ZM131.303 176.3C129.343 176.3 127.803 175.87 126.683 175.01C125.583 174.15 125.033 172.96 125.033 171.44C125.033 169.94 125.613 168.75 126.773 167.87C127.953 166.99 129.553 166.55 131.573 166.55C132.753 166.55 133.793 166.71 134.693 167.03C135.613 167.35 136.323 167.78 136.823 168.32V166.4C136.823 165.26 136.443 164.39 135.683 163.79C134.943 163.19 133.853 162.89 132.413 162.89C130.553 162.89 128.943 163.33 127.583 164.21C127.243 164.41 126.963 164.51 126.743 164.51C126.543 164.51 126.343 164.43 126.143 164.27C125.923 164.09 125.813 163.86 125.813 163.58C125.813 163.28 125.943 163.03 126.203 162.83C126.923 162.27 127.833 161.83 128.933 161.51C130.053 161.17 131.193 161 132.353 161C134.473 161 136.113 161.48 137.273 162.44C138.453 163.4 139.043 164.75 139.043 166.49V175.13C139.043 175.91 138.683 176.3 137.963 176.3C137.643 176.3 137.383 176.2 137.183 176C136.983 175.78 136.883 175.5 136.883 175.16V174.08C135.643 175.56 133.783 176.3 131.303 176.3ZM131.573 174.47C133.133 174.47 134.403 174.18 135.383 173.6C136.363 173 136.853 172.23 136.853 171.29C136.853 170.35 136.393 169.63 135.473 169.13C134.573 168.61 133.293 168.35 131.633 168.35C130.233 168.35 129.153 168.62 128.393 169.16C127.633 169.68 127.253 170.44 127.253 171.44C127.253 172.42 127.623 173.17 128.363 173.69C129.103 174.21 130.173 174.47 131.573 174.47ZM144.148 176.3C143.808 176.3 143.538 176.2 143.338 176C143.158 175.78 143.068 175.48 143.068 175.1V162.2C143.068 161.82 143.158 161.53 143.338 161.33C143.538 161.11 143.808 161 144.148 161C144.508 161 144.778 161.11 144.958 161.33C145.158 161.55 145.258 161.84 145.258 162.2V163.91C145.798 163.01 146.488 162.3 147.328 161.78C148.188 161.26 149.088 161 150.028 161C150.968 161 151.798 161.26 152.518 161.78C153.238 162.28 153.768 162.99 154.108 163.91C154.808 162.97 155.578 162.25 156.418 161.75C157.278 161.25 158.168 161 159.088 161C160.668 161 161.858 161.49 162.658 162.47C163.458 163.43 163.858 164.86 163.858 166.76V175.1C163.858 175.48 163.758 175.78 163.558 176C163.358 176.2 163.088 176.3 162.748 176.3C162.028 176.3 161.668 175.9 161.668 175.1V166.7C161.668 165.42 161.448 164.47 161.008 163.85C160.588 163.21 159.858 162.89 158.818 162.89C157.938 162.89 157.148 163.16 156.448 163.7C155.748 164.22 155.188 164.98 154.768 165.98V175.1C154.768 175.48 154.668 175.78 154.468 176C154.268 176.2 153.998 176.3 153.658 176.3C153.318 176.3 153.048 176.2 152.848 176C152.668 175.78 152.578 175.48 152.578 175.1V167.15C152.578 165.77 152.328 164.72 151.828 164C151.348 163.26 150.658 162.89 149.758 162.89C148.898 162.89 148.128 163.13 147.448 163.61C146.768 164.07 146.228 164.71 145.828 165.53C145.448 166.35 145.258 167.28 145.258 168.32V175.1C145.258 175.46 145.158 175.75 144.958 175.97C144.778 176.19 144.508 176.3 144.148 176.3ZM173.344 176.3C171.384 176.3 169.844 175.87 168.724 175.01C167.624 174.15 167.074 172.96 167.074 171.44C167.074 169.94 167.654 168.75 168.814 167.87C169.994 166.99 171.594 166.55 173.614 166.55C174.794 166.55 175.834 166.71 176.734 167.03C177.654 167.35 178.364 167.78 178.864 168.32V166.4C178.864 165.26 178.484 164.39 177.724 163.79C176.984 163.19 175.894 162.89 174.454 162.89C172.594 162.89 170.984 163.33 169.624 164.21C169.284 164.41 169.004 164.51 168.784 164.51C168.584 164.51 168.384 164.43 168.184 164.27C167.964 164.09 167.854 163.86 167.854 163.58C167.854 163.28 167.984 163.03 168.244 162.83C168.964 162.27 169.874 161.83 170.974 161.51C172.094 161.17 173.234 161 174.394 161C176.514 161 178.154 161.48 179.314 162.44C180.494 163.4 181.084 164.75 181.084 166.49V175.13C181.084 175.91 180.724 176.3 180.004 176.3C179.684 176.3 179.424 176.2 179.224 176C179.024 175.78 178.924 175.5 178.924 175.16V174.08C177.684 175.56 175.824 176.3 173.344 176.3ZM173.614 174.47C175.174 174.47 176.444 174.18 177.424 173.6C178.404 173 178.894 172.23 178.894 171.29C178.894 170.35 178.434 169.63 177.514 169.13C176.614 168.61 175.334 168.35 173.674 168.35C172.274 168.35 171.194 168.62 170.434 169.16C169.674 169.68 169.294 170.44 169.294 171.44C169.294 172.42 169.664 173.17 170.404 173.69C171.144 174.21 172.214 174.47 173.614 174.47ZM208.916 176.27C208.376 176.27 208.016 175.97 207.836 175.37C207.196 172.97 206.226 170.96 204.926 169.34C203.626 167.7 201.826 166.22 199.526 164.9L195.746 167.99V175.1C195.746 175.48 195.646 175.78 195.446 176C195.246 176.2 194.966 176.3 194.606 176.3C194.266 176.3 193.996 176.2 193.796 176C193.596 175.78 193.496 175.48 193.496 175.1V155.9C193.496 155.52 193.596 155.23 193.796 155.03C193.996 154.81 194.266 154.7 194.606 154.7C194.966 154.7 195.246 154.81 195.446 155.03C195.646 155.23 195.746 155.52 195.746 155.9V165.41L207.716 155.09C207.936 154.91 208.156 154.82 208.376 154.82C208.656 154.82 208.906 154.93 209.126 155.15C209.326 155.35 209.426 155.59 209.426 155.87C209.426 156.13 209.306 156.37 209.066 156.59L201.056 163.58C203.656 165.12 205.676 166.82 207.116 168.68C208.576 170.54 209.506 172.65 209.906 175.01L209.936 175.25C209.936 175.57 209.836 175.82 209.636 176C209.456 176.18 209.216 176.27 208.916 176.27ZM214.755 176.3C214.415 176.3 214.145 176.2 213.945 176C213.765 175.78 213.675 175.48 213.675 175.1V162.2C213.675 161.82 213.765 161.53 213.945 161.33C214.125 161.11 214.395 161 214.755 161C215.095 161 215.355 161.11 215.535 161.33C215.735 161.53 215.835 161.82 215.835 162.2V164C217.195 162.2 219.075 161.3 221.475 161.3H222.225C222.605 161.3 222.905 161.39 223.125 161.57C223.345 161.73 223.455 161.96 223.455 162.26C223.455 162.56 223.345 162.79 223.125 162.95C222.905 163.11 222.605 163.19 222.225 163.19H221.385C219.685 163.19 218.335 163.68 217.335 164.66C216.355 165.62 215.865 166.93 215.865 168.59V175.1C215.865 175.46 215.765 175.75 215.565 175.97C215.385 176.19 215.115 176.3 214.755 176.3ZM227.452 157.82C227.012 157.82 226.632 157.68 226.312 157.4C226.012 157.1 225.862 156.74 225.862 156.32C225.862 155.9 226.012 155.54 226.312 155.24C226.632 154.94 227.012 154.79 227.452 154.79C227.892 154.79 228.272 154.95 228.592 155.27C228.932 155.57 229.102 155.92 229.102 156.32C229.102 156.72 228.932 157.07 228.592 157.37C228.272 157.67 227.892 157.82 227.452 157.82ZM227.452 176.3C227.112 176.3 226.842 176.2 226.642 176C226.462 175.78 226.372 175.48 226.372 175.1V162.2C226.372 161.82 226.462 161.53 226.642 161.33C226.842 161.11 227.112 161 227.452 161C227.812 161 228.082 161.11 228.262 161.33C228.462 161.53 228.562 161.82 228.562 162.2V175.1C228.562 175.48 228.462 175.78 228.262 176C228.082 176.2 227.812 176.3 227.452 176.3ZM239.722 176.3C238.322 176.3 237.002 176.04 235.762 175.52C234.522 174.98 233.542 174.24 232.822 173.3C232.682 173.1 232.612 172.9 232.612 172.7C232.612 172.5 232.662 172.33 232.762 172.19C232.882 172.03 233.032 171.91 233.212 171.83C233.372 171.77 233.502 171.74 233.602 171.74C233.782 171.74 233.932 171.79 234.052 171.89C234.192 171.97 234.352 172.11 234.532 172.31C235.832 173.69 237.562 174.38 239.722 174.38C240.762 174.38 241.602 174.2 242.242 173.84C242.882 173.48 243.202 172.98 243.202 172.34C243.202 171.88 243.072 171.51 242.812 171.23C242.572 170.93 242.152 170.66 241.552 170.42C240.972 170.16 240.012 169.8 238.672 169.34C237.372 168.9 236.352 168.48 235.612 168.08C234.872 167.68 234.322 167.23 233.962 166.73C233.602 166.21 233.422 165.58 233.422 164.84C233.422 163.68 233.922 162.75 234.922 162.05C235.942 161.35 237.292 161 238.972 161C240.212 161 241.362 161.22 242.422 161.66C243.482 162.08 244.282 162.65 244.822 163.37C244.982 163.59 245.062 163.8 245.062 164C245.062 164.3 244.902 164.54 244.582 164.72C244.382 164.84 244.182 164.9 243.982 164.9C243.642 164.9 243.322 164.75 243.022 164.45C242.502 163.93 241.932 163.55 241.312 163.31C240.692 163.05 239.902 162.92 238.942 162.92C237.882 162.92 237.072 163.09 236.512 163.43C235.952 163.77 235.672 164.25 235.672 164.87C235.672 165.33 235.782 165.7 236.002 165.98C236.242 166.24 236.612 166.48 237.112 166.7C237.632 166.9 238.532 167.21 239.812 167.63C241.252 168.11 242.362 168.57 243.142 169.01C243.942 169.43 244.512 169.9 244.852 170.42C245.212 170.94 245.392 171.58 245.392 172.34C245.392 173.54 244.862 174.5 243.802 175.22C242.762 175.94 241.402 176.3 239.722 176.3ZM249.94 176.3C249.6 176.3 249.33 176.2 249.13 176C248.95 175.78 248.86 175.48 248.86 175.1V154.43C248.86 154.05 248.95 153.76 249.13 153.56C249.33 153.34 249.6 153.23 249.94 153.23C250.28 153.23 250.55 153.34 250.75 153.56C250.95 153.76 251.05 154.05 251.05 154.43V163.97C251.79 162.99 252.68 162.25 253.72 161.75C254.78 161.25 255.93 161 257.17 161C259.07 161 260.53 161.53 261.55 162.59C262.59 163.65 263.11 165.17 263.11 167.15V175.1C263.11 175.48 263.01 175.78 262.81 176C262.61 176.2 262.34 176.3 262 176.3C261.64 176.3 261.37 176.2 261.19 176C261.01 175.78 260.92 175.48 260.92 175.1V167.15C260.92 164.31 259.58 162.89 256.9 162.89C255.14 162.89 253.72 163.41 252.64 164.45C251.58 165.49 251.05 166.87 251.05 168.59V175.1C251.05 175.46 250.95 175.75 250.75 175.97C250.57 176.19 250.3 176.3 249.94 176.3ZM268.28 176.3C267.94 176.3 267.67 176.2 267.47 176C267.29 175.78 267.2 175.48 267.2 175.1V162.2C267.2 161.82 267.29 161.53 267.47 161.33C267.65 161.11 267.92 161 268.28 161C268.62 161 268.88 161.11 269.06 161.33C269.26 161.53 269.36 161.82 269.36 162.2V163.97C270.1 162.99 270.99 162.25 272.03 161.75C273.09 161.25 274.25 161 275.51 161C277.41 161 278.87 161.53 279.89 162.59C280.93 163.65 281.45 165.17 281.45 167.15V175.1C281.45 175.48 281.35 175.78 281.15 176C280.95 176.2 280.68 176.3 280.34 176.3C279.98 176.3 279.71 176.2 279.53 176C279.35 175.78 279.26 175.48 279.26 175.1V167.15C279.26 164.31 277.92 162.89 275.24 162.89C273.48 162.89 272.06 163.41 270.98 164.45C269.92 165.49 269.39 166.87 269.39 168.59V175.1C269.39 175.46 269.29 175.75 269.09 175.97C268.91 176.19 268.64 176.3 268.28 176.3ZM291 176.3C289.04 176.3 287.5 175.87 286.38 175.01C285.28 174.15 284.73 172.96 284.73 171.44C284.73 169.94 285.31 168.75 286.47 167.87C287.65 166.99 289.25 166.55 291.27 166.55C292.45 166.55 293.49 166.71 294.39 167.03C295.31 167.35 296.02 167.78 296.52 168.32V166.4C296.52 165.26 296.14 164.39 295.38 163.79C294.64 163.19 293.55 162.89 292.11 162.89C290.25 162.89 288.64 163.33 287.28 164.21C286.94 164.41 286.66 164.51 286.44 164.51C286.24 164.51 286.04 164.43 285.84 164.27C285.62 164.09 285.51 163.86 285.51 163.58C285.51 163.28 285.64 163.03 285.9 162.83C286.62 162.27 287.53 161.83 288.63 161.51C289.75 161.17 290.89 161 292.05 161C294.17 161 295.81 161.48 296.97 162.44C298.15 163.4 298.74 164.75 298.74 166.49V175.13C298.74 175.91 298.38 176.3 297.66 176.3C297.34 176.3 297.08 176.2 296.88 176C296.68 175.78 296.58 175.5 296.58 175.16V174.08C295.34 175.56 293.48 176.3 291 176.3ZM291.27 174.47C292.83 174.47 294.1 174.18 295.08 173.6C296.06 173 296.55 172.23 296.55 171.29C296.55 170.35 296.09 169.63 295.17 169.13C294.27 168.61 292.99 168.35 291.33 168.35C289.93 168.35 288.85 168.62 288.09 169.16C287.33 169.68 286.95 170.44 286.95 171.44C286.95 172.42 287.32 173.17 288.06 173.69C288.8 174.21 289.87 174.47 291.27 174.47ZM6.48191 215C5.26191 215 4.31191 214.68 3.63191 214.04C2.95191 213.4 2.61191 212.5 2.61191 211.34V197.6C2.61191 196.48 2.94191 195.6 3.60191 194.96C4.28191 194.32 5.22191 194 6.42191 194H15.7219C16.5019 194 16.8919 194.32 16.8919 194.96C16.8919 195.24 16.7919 195.46 16.5919 195.62C16.3919 195.78 16.1019 195.86 15.7219 195.86H6.45191C5.97191 195.86 5.58191 196.02 5.28191 196.34C5.00191 196.66 4.86191 197.08 4.86191 197.6V203.33H13.4419C14.2219 203.33 14.6119 203.65 14.6119 204.29C14.6119 204.59 14.5019 204.82 14.2819 204.98C14.0819 205.14 13.8019 205.22 13.4419 205.22H4.86191V211.4C4.86191 211.92 5.00191 212.34 5.28191 212.66C5.58191 212.98 5.97191 213.14 6.45191 213.14H16.3819C17.1619 213.14 17.5519 213.45 17.5519 214.07C17.5519 214.37 17.4419 214.6 17.2219 214.76C17.0219 214.92 16.7419 215 16.3819 215H6.48191ZM22.4063 215.3C22.0663 215.3 21.7963 215.2 21.5963 215C21.4163 214.78 21.3263 214.48 21.3263 214.1V201.2C21.3263 200.82 21.4163 200.53 21.5963 200.33C21.7763 200.11 22.0463 200 22.4063 200C22.7463 200 23.0063 200.11 23.1863 200.33C23.3863 200.53 23.4863 200.82 23.4863 201.2V202.97C24.2263 201.99 25.1163 201.25 26.1563 200.75C27.2163 200.25 28.3763 200 29.6363 200C31.5363 200 32.9963 200.53 34.0163 201.59C35.0563 202.65 35.5763 204.17 35.5763 206.15V214.1C35.5763 214.48 35.4763 214.78 35.2763 215C35.0763 215.2 34.8063 215.3 34.4663 215.3C34.1063 215.3 33.8363 215.2 33.6563 215C33.4763 214.78 33.3863 214.48 33.3863 214.1V206.15C33.3863 203.31 32.0463 201.89 29.3663 201.89C27.6063 201.89 26.1863 202.41 25.1063 203.45C24.0463 204.49 23.5163 205.87 23.5163 207.59V214.1C23.5163 214.46 23.4163 214.75 23.2163 214.97C23.0363 215.19 22.7663 215.3 22.4063 215.3ZM47.4061 222.53C45.9661 222.53 44.6661 222.32 43.5061 221.9C42.3461 221.48 41.4061 220.87 40.6861 220.07C40.5261 219.91 40.4461 219.71 40.4461 219.47C40.4461 219.17 40.6061 218.91 40.9261 218.69C41.1261 218.55 41.3161 218.48 41.4961 218.48C41.7961 218.48 42.0961 218.64 42.3961 218.96C42.8761 219.48 43.5161 219.9 44.3161 220.22C45.1161 220.54 46.0761 220.7 47.1961 220.7C49.1561 220.7 50.6561 220.23 51.6961 219.29C52.7361 218.35 53.2561 216.99 53.2561 215.21V212.39C52.5761 213.29 51.6861 214.03 50.5861 214.61C49.4861 215.17 48.2061 215.45 46.7461 215.45C44.2061 215.45 42.2461 214.77 40.8661 213.41C39.4861 212.05 38.7961 210.23 38.7961 207.95C38.7961 206.41 39.0961 205.05 39.6961 203.87C40.3161 202.67 41.2361 201.73 42.4561 201.05C43.6761 200.35 45.1761 200 46.9561 200C48.2761 200 49.4661 200.27 50.5261 200.81C51.5861 201.35 52.4961 202.12 53.2561 203.12V201.14C53.2561 200.82 53.3561 200.55 53.5561 200.33C53.7761 200.11 54.0461 200 54.3661 200C54.6861 200 54.9461 200.11 55.1461 200.33C55.3461 200.53 55.4461 200.8 55.4461 201.14V215.21C55.4461 216.71 55.1061 218.01 54.4261 219.11C53.7661 220.21 52.8261 221.05 51.6061 221.63C50.3861 222.23 48.9861 222.53 47.4061 222.53ZM46.9561 213.5C48.0361 213.5 49.0461 213.29 49.9861 212.87C50.9461 212.45 51.7261 211.81 52.3261 210.95C52.9261 210.07 53.2261 209 53.2261 207.74C53.2261 206.62 52.9861 205.62 52.5061 204.74C52.0261 203.86 51.3261 203.17 50.4061 202.67C49.4861 202.15 48.3861 201.89 47.1061 201.89C45.1661 201.89 43.6661 202.42 42.6061 203.48C41.5461 204.52 41.0161 206.01 41.0161 207.95C41.0161 209.67 41.5161 211.03 42.5161 212.03C43.5361 213.01 45.0161 213.5 46.9561 213.5ZM61.1194 196.82C60.6794 196.82 60.2994 196.68 59.9794 196.4C59.6794 196.1 59.5294 195.74 59.5294 195.32C59.5294 194.9 59.6794 194.54 59.9794 194.24C60.2994 193.94 60.6794 193.79 61.1194 193.79C61.5594 193.79 61.9394 193.95 62.2594 194.27C62.5994 194.57 62.7694 194.92 62.7694 195.32C62.7694 195.72 62.5994 196.07 62.2594 196.37C61.9394 196.67 61.5594 196.82 61.1194 196.82ZM61.1194 215.3C60.7794 215.3 60.5094 215.2 60.3094 215C60.1294 214.78 60.0394 214.48 60.0394 214.1V201.2C60.0394 200.82 60.1294 200.53 60.3094 200.33C60.5094 200.11 60.7794 200 61.1194 200C61.4794 200 61.7494 200.11 61.9294 200.33C62.1294 200.53 62.2294 200.82 62.2294 201.2V214.1C62.2294 214.48 62.1294 214.78 61.9294 215C61.7494 215.2 61.4794 215.3 61.1194 215.3ZM68.1094 215.3C67.7694 215.3 67.4994 215.2 67.2994 215C67.1194 214.78 67.0294 214.48 67.0294 214.1V201.2C67.0294 200.82 67.1194 200.53 67.2994 200.33C67.4794 200.11 67.7494 200 68.1094 200C68.4494 200 68.7094 200.11 68.8894 200.33C69.0894 200.53 69.1894 200.82 69.1894 201.2V202.97C69.9294 201.99 70.8194 201.25 71.8594 200.75C72.9194 200.25 74.0794 200 75.3394 200C77.2394 200 78.6994 200.53 79.7194 201.59C80.7594 202.65 81.2794 204.17 81.2794 206.15V214.1C81.2794 214.48 81.1794 214.78 80.9794 215C80.7794 215.2 80.5094 215.3 80.1694 215.3C79.8094 215.3 79.5394 215.2 79.3594 215C79.1794 214.78 79.0894 214.48 79.0894 214.1V206.15C79.0894 203.31 77.7494 201.89 75.0694 201.89C73.3094 201.89 71.8894 202.41 70.8094 203.45C69.7494 204.49 69.2194 205.87 69.2194 207.59V214.1C69.2194 214.46 69.1194 214.75 68.9194 214.97C68.7394 215.19 68.4694 215.3 68.1094 215.3ZM92.6893 215.3C90.0893 215.3 88.0793 214.63 86.6593 213.29C85.2393 211.95 84.5293 210.05 84.5293 207.59C84.5293 205.23 85.2493 203.38 86.6893 202.04C88.1293 200.68 90.0993 200 92.5993 200C94.1393 200 95.5093 200.25 96.7093 200.75C97.9093 201.23 98.8393 201.92 99.4993 202.82C100.179 203.7 100.519 204.71 100.519 205.85C100.519 206.69 100.279 207.34 99.7993 207.8C99.3393 208.26 98.6993 208.49 97.8793 208.49H86.7793C86.7793 210.03 87.2993 211.24 88.3393 212.12C89.3793 212.98 90.8293 213.41 92.6893 213.41C93.8293 213.41 94.8093 213.29 95.6293 213.05C96.4493 212.79 97.2193 212.38 97.9393 211.82C98.3193 211.5 98.6293 211.34 98.8693 211.34C99.0493 211.34 99.2193 211.42 99.3793 211.58C99.6593 211.82 99.7993 212.07 99.7993 212.33C99.7993 212.53 99.6793 212.75 99.4393 212.99C98.6193 213.77 97.6593 214.35 96.5593 214.73C95.4593 215.11 94.1693 215.3 92.6893 215.3ZM97.2193 206.72C97.5793 206.72 97.8493 206.65 98.0293 206.51C98.2093 206.35 98.2993 206.07 98.2993 205.67C98.2993 204.95 98.0593 204.3 97.5793 203.72C97.0993 203.14 96.4193 202.69 95.5393 202.37C94.6793 202.05 93.6993 201.89 92.5993 201.89C90.8193 201.89 89.4093 202.33 88.3693 203.21C87.3493 204.07 86.8393 205.24 86.8393 206.72H97.2193ZM111.263 215.3C108.663 215.3 106.653 214.63 105.233 213.29C103.813 211.95 103.103 210.05 103.103 207.59C103.103 205.23 103.823 203.38 105.263 202.04C106.703 200.68 108.673 200 111.173 200C112.713 200 114.083 200.25 115.283 200.75C116.483 201.23 117.413 201.92 118.073 202.82C118.753 203.7 119.093 204.71 119.093 205.85C119.093 206.69 118.853 207.34 118.373 207.8C117.913 208.26 117.273 208.49 116.453 208.49H105.353C105.353 210.03 105.873 211.24 106.913 212.12C107.953 212.98 109.403 213.41 111.263 213.41C112.403 213.41 113.383 213.29 114.203 213.05C115.023 212.79 115.793 212.38 116.513 211.82C116.893 211.5 117.203 211.34 117.443 211.34C117.623 211.34 117.793 211.42 117.953 211.58C118.233 211.82 118.373 212.07 118.373 212.33C118.373 212.53 118.253 212.75 118.013 212.99C117.193 213.77 116.233 214.35 115.133 214.73C114.033 215.11 112.743 215.3 111.263 215.3ZM115.793 206.72C116.153 206.72 116.423 206.65 116.603 206.51C116.783 206.35 116.873 206.07 116.873 205.67C116.873 204.95 116.633 204.3 116.153 203.72C115.673 203.14 114.993 202.69 114.113 202.37C113.253 202.05 112.273 201.89 111.173 201.89C109.393 201.89 107.983 202.33 106.943 203.21C105.923 204.07 105.413 205.24 105.413 206.72H115.793ZM123.598 215.3C123.258 215.3 122.988 215.2 122.788 215C122.608 214.78 122.518 214.48 122.518 214.1V201.2C122.518 200.82 122.608 200.53 122.788 200.33C122.968 200.11 123.238 200 123.598 200C123.938 200 124.198 200.11 124.378 200.33C124.578 200.53 124.678 200.82 124.678 201.2V203C126.038 201.2 127.918 200.3 130.318 200.3H131.068C131.448 200.3 131.748 200.39 131.968 200.57C132.188 200.73 132.298 200.96 132.298 201.26C132.298 201.56 132.188 201.79 131.968 201.95C131.748 202.11 131.448 202.19 131.068 202.19H130.228C128.528 202.19 127.178 202.68 126.178 203.66C125.198 204.62 124.708 205.93 124.708 207.59V214.1C124.708 214.46 124.608 214.75 124.408 214.97C124.228 215.19 123.958 215.3 123.598 215.3ZM136.295 196.82C135.855 196.82 135.475 196.68 135.155 196.4C134.855 196.1 134.705 195.74 134.705 195.32C134.705 194.9 134.855 194.54 135.155 194.24C135.475 193.94 135.855 193.79 136.295 193.79C136.735 193.79 137.115 193.95 137.435 194.27C137.775 194.57 137.945 194.92 137.945 195.32C137.945 195.72 137.775 196.07 137.435 196.37C137.115 196.67 136.735 196.82 136.295 196.82ZM136.295 215.3C135.955 215.3 135.685 215.2 135.485 215C135.305 214.78 135.215 214.48 135.215 214.1V201.2C135.215 200.82 135.305 200.53 135.485 200.33C135.685 200.11 135.955 200 136.295 200C136.655 200 136.925 200.11 137.105 200.33C137.305 200.53 137.405 200.82 137.405 201.2V214.1C137.405 214.48 137.305 214.78 137.105 215C136.925 215.2 136.655 215.3 136.295 215.3ZM143.285 215.3C142.945 215.3 142.675 215.2 142.475 215C142.295 214.78 142.205 214.48 142.205 214.1V201.2C142.205 200.82 142.295 200.53 142.475 200.33C142.655 200.11 142.925 200 143.285 200C143.625 200 143.885 200.11 144.065 200.33C144.265 200.53 144.365 200.82 144.365 201.2V202.97C145.105 201.99 145.995 201.25 147.035 200.75C148.095 200.25 149.255 200 150.515 200C152.415 200 153.875 200.53 154.895 201.59C155.935 202.65 156.455 204.17 156.455 206.15V214.1C156.455 214.48 156.355 214.78 156.155 215C155.955 215.2 155.685 215.3 155.345 215.3C154.985 215.3 154.715 215.2 154.535 215C154.355 214.78 154.265 214.48 154.265 214.1V206.15C154.265 203.31 152.925 201.89 150.245 201.89C148.485 201.89 147.065 202.41 145.985 203.45C144.925 204.49 144.395 205.87 144.395 207.59V214.1C144.395 214.46 144.295 214.75 144.095 214.97C143.915 215.19 143.645 215.3 143.285 215.3ZM168.285 222.53C166.845 222.53 165.545 222.32 164.385 221.9C163.225 221.48 162.285 220.87 161.565 220.07C161.405 219.91 161.325 219.71 161.325 219.47C161.325 219.17 161.485 218.91 161.805 218.69C162.005 218.55 162.195 218.48 162.375 218.48C162.675 218.48 162.975 218.64 163.275 218.96C163.755 219.48 164.395 219.9 165.195 220.22C165.995 220.54 166.955 220.7 168.075 220.7C170.035 220.7 171.535 220.23 172.575 219.29C173.615 218.35 174.135 216.99 174.135 215.21V212.39C173.455 213.29 172.565 214.03 171.465 214.61C170.365 215.17 169.085 215.45 167.625 215.45C165.085 215.45 163.125 214.77 161.745 213.41C160.365 212.05 159.675 210.23 159.675 207.95C159.675 206.41 159.975 205.05 160.575 203.87C161.195 202.67 162.115 201.73 163.335 201.05C164.555 200.35 166.055 200 167.835 200C169.155 200 170.345 200.27 171.405 200.81C172.465 201.35 173.375 202.12 174.135 203.12V201.14C174.135 200.82 174.235 200.55 174.435 200.33C174.655 200.11 174.925 200 175.245 200C175.565 200 175.825 200.11 176.025 200.33C176.225 200.53 176.325 200.8 176.325 201.14V215.21C176.325 216.71 175.985 218.01 175.305 219.11C174.645 220.21 173.705 221.05 172.485 221.63C171.265 222.23 169.865 222.53 168.285 222.53ZM167.835 213.5C168.915 213.5 169.925 213.29 170.865 212.87C171.825 212.45 172.605 211.81 173.205 210.95C173.805 210.07 174.105 209 174.105 207.74C174.105 206.62 173.865 205.62 173.385 204.74C172.905 203.86 172.205 203.17 171.285 202.67C170.365 202.15 169.265 201.89 167.985 201.89C166.045 201.89 164.545 202.42 163.485 203.48C162.425 204.52 161.895 206.01 161.895 207.95C161.895 209.67 162.395 211.03 163.395 212.03C164.415 213.01 165.895 213.5 167.835 213.5ZM198.366 215.3C196.286 215.3 194.456 214.86 192.876 213.98C191.316 213.08 190.106 211.82 189.246 210.2C188.386 208.56 187.956 206.67 187.956 204.53C187.956 202.37 188.386 200.47 189.246 198.83C190.106 197.19 191.316 195.93 192.876 195.05C194.456 194.15 196.276 193.7 198.336 193.7C200.056 193.7 201.636 193.99 203.076 194.57C204.536 195.15 205.676 195.96 206.496 197C206.656 197.18 206.736 197.4 206.736 197.66C206.736 197.98 206.596 198.24 206.316 198.44C206.136 198.56 205.936 198.62 205.716 198.62C205.336 198.62 205.016 198.47 204.756 198.17C204.116 197.35 203.246 196.72 202.146 196.28C201.046 195.84 199.776 195.62 198.336 195.62C196.676 195.62 195.236 195.98 194.016 196.7C192.796 197.42 191.856 198.45 191.196 199.79C190.556 201.13 190.236 202.71 190.236 204.53C190.236 206.33 190.556 207.9 191.196 209.24C191.856 210.56 192.796 211.58 194.016 212.3C195.256 213.02 196.706 213.38 198.366 213.38C199.906 213.38 201.246 213.16 202.386 212.72C203.546 212.26 204.456 211.63 205.116 210.83C205.416 210.51 205.736 210.35 206.076 210.35C206.316 210.35 206.516 210.42 206.676 210.56C206.956 210.8 207.096 211.06 207.096 211.34C207.096 211.58 207.006 211.81 206.826 212.03C206.006 213.03 204.836 213.83 203.316 214.43C201.816 215.01 200.166 215.3 198.366 215.3ZM217.526 215.3C215.786 215.3 214.296 214.95 213.056 214.25C211.816 213.55 210.876 212.62 210.236 211.46C209.616 210.28 209.306 209.01 209.306 207.65C209.306 206.29 209.616 205.03 210.236 203.87C210.876 202.69 211.816 201.75 213.056 201.05C214.296 200.35 215.786 200 217.526 200C219.266 200 220.746 200.35 221.966 201.05C223.206 201.75 224.136 202.69 224.756 203.87C225.396 205.03 225.716 206.29 225.716 207.65C225.716 209.01 225.396 210.28 224.756 211.46C224.136 212.62 223.206 213.55 221.966 214.25C220.746 214.95 219.266 215.3 217.526 215.3ZM217.526 213.41C219.326 213.41 220.766 212.9 221.846 211.88C222.946 210.86 223.496 209.45 223.496 207.65C223.496 205.85 222.946 204.44 221.846 203.42C220.766 202.4 219.326 201.89 217.526 201.89C215.706 201.89 214.246 202.4 213.146 203.42C212.066 204.44 211.526 205.85 211.526 207.65C211.526 209.45 212.066 210.86 213.146 211.88C214.246 212.9 215.706 213.41 217.526 213.41ZM229.768 215.3C229.428 215.3 229.158 215.2 228.958 215C228.778 214.78 228.688 214.48 228.688 214.1V201.2C228.688 200.82 228.778 200.53 228.958 200.33C229.158 200.11 229.428 200 229.768 200C230.128 200 230.398 200.11 230.578 200.33C230.778 200.55 230.878 200.84 230.878 201.2V202.91C231.418 202.01 232.108 201.3 232.948 200.78C233.808 200.26 234.708 200 235.648 200C236.588 200 237.418 200.26 238.138 200.78C238.858 201.28 239.388 201.99 239.728 202.91C240.428 201.97 241.198 201.25 242.038 200.75C242.898 200.25 243.788 200 244.708 200C246.288 200 247.478 200.49 248.278 201.47C249.078 202.43 249.478 203.86 249.478 205.76V214.1C249.478 214.48 249.378 214.78 249.178 215C248.978 215.2 248.708 215.3 248.368 215.3C247.648 215.3 247.288 214.9 247.288 214.1V205.7C247.288 204.42 247.068 203.47 246.628 202.85C246.208 202.21 245.478 201.89 244.438 201.89C243.558 201.89 242.768 202.16 242.068 202.7C241.368 203.22 240.808 203.98 240.388 204.98V214.1C240.388 214.48 240.288 214.78 240.088 215C239.888 215.2 239.618 215.3 239.278 215.3C238.938 215.3 238.668 215.2 238.468 215C238.288 214.78 238.198 214.48 238.198 214.1V206.15C238.198 204.77 237.948 203.72 237.448 203C236.968 202.26 236.278 201.89 235.378 201.89C234.518 201.89 233.748 202.13 233.068 202.61C232.388 203.07 231.848 203.71 231.448 204.53C231.068 205.35 230.878 206.28 230.878 207.32V214.1C230.878 214.46 230.778 214.75 230.578 214.97C230.398 215.19 230.128 215.3 229.768 215.3ZM254.524 223.97C254.184 223.97 253.914 223.86 253.714 223.64C253.534 223.44 253.444 223.15 253.444 222.77V201.2C253.444 200.82 253.534 200.53 253.714 200.33C253.914 200.11 254.184 200 254.524 200C254.884 200 255.154 200.11 255.334 200.33C255.534 200.55 255.634 200.84 255.634 201.2V203.12C257.174 201.04 259.394 200 262.294 200C264.714 200 266.614 200.67 267.994 202.01C269.394 203.35 270.094 205.19 270.094 207.53C270.094 209.11 269.774 210.49 269.134 211.67C268.494 212.83 267.574 213.73 266.374 214.37C265.194 214.99 263.804 215.3 262.204 215.3C260.824 215.3 259.604 215.06 258.544 214.58C257.504 214.08 256.544 213.3 255.664 212.24V222.77C255.664 223.13 255.564 223.42 255.364 223.64C255.164 223.86 254.884 223.97 254.524 223.97ZM262.054 213.41C263.874 213.41 265.294 212.89 266.314 211.85C267.354 210.79 267.874 209.33 267.874 207.47C267.874 205.67 267.364 204.29 266.344 203.33C265.344 202.37 263.904 201.89 262.024 201.89C260.044 201.89 258.484 202.4 257.344 203.42C256.204 204.42 255.634 205.79 255.634 207.53C255.634 208.69 255.894 209.72 256.414 210.62C256.954 211.5 257.704 212.19 258.664 212.69C259.644 213.17 260.774 213.41 262.054 213.41ZM278.974 215.3C277.014 215.3 275.474 214.87 274.354 214.01C273.254 213.15 272.704 211.96 272.704 210.44C272.704 208.94 273.284 207.75 274.444 206.87C275.624 205.99 277.224 205.55 279.244 205.55C280.424 205.55 281.464 205.71 282.364 206.03C283.284 206.35 283.994 206.78 284.494 207.32V205.4C284.494 204.26 284.114 203.39 283.354 202.79C282.614 202.19 281.524 201.89 280.084 201.89C278.224 201.89 276.614 202.33 275.254 203.21C274.914 203.41 274.634 203.51 274.414 203.51C274.214 203.51 274.014 203.43 273.814 203.27C273.594 203.09 273.484 202.86 273.484 202.58C273.484 202.28 273.614 202.03 273.874 201.83C274.594 201.27 275.504 200.83 276.604 200.51C277.724 200.17 278.864 200 280.024 200C282.144 200 283.784 200.48 284.944 201.44C286.124 202.4 286.714 203.75 286.714 205.49V214.13C286.714 214.91 286.354 215.3 285.634 215.3C285.314 215.3 285.054 215.2 284.854 215C284.654 214.78 284.554 214.5 284.554 214.16V213.08C283.314 214.56 281.454 215.3 278.974 215.3ZM279.244 213.47C280.804 213.47 282.074 213.18 283.054 212.6C284.034 212 284.524 211.23 284.524 210.29C284.524 209.35 284.064 208.63 283.144 208.13C282.244 207.61 280.964 207.35 279.304 207.35C277.904 207.35 276.824 207.62 276.064 208.16C275.304 208.68 274.924 209.44 274.924 210.44C274.924 211.42 275.294 212.17 276.034 212.69C276.774 213.21 277.844 213.47 279.244 213.47ZM291.879 215.3C291.539 215.3 291.269 215.2 291.069 215C290.889 214.78 290.799 214.48 290.799 214.1V201.2C290.799 200.82 290.889 200.53 291.069 200.33C291.249 200.11 291.519 200 291.879 200C292.219 200 292.479 200.11 292.659 200.33C292.859 200.53 292.959 200.82 292.959 201.2V202.97C293.699 201.99 294.589 201.25 295.629 200.75C296.689 200.25 297.849 200 299.109 200C301.009 200 302.469 200.53 303.489 201.59C304.529 202.65 305.049 204.17 305.049 206.15V214.1C305.049 214.48 304.949 214.78 304.749 215C304.549 215.2 304.279 215.3 303.939 215.3C303.579 215.3 303.309 215.2 303.129 215C302.949 214.78 302.859 214.48 302.859 214.1V206.15C302.859 203.31 301.519 201.89 298.839 201.89C297.079 201.89 295.659 202.41 294.579 203.45C293.519 204.49 292.989 205.87 292.989 207.59V214.1C292.989 214.46 292.889 214.75 292.689 214.97C292.509 215.19 292.239 215.3 291.879 215.3ZM315.829 222.5C314.349 222.5 313.029 222.28 311.869 221.84C310.709 221.4 309.859 220.8 309.319 220.04C309.179 219.84 309.109 219.64 309.109 219.44C309.109 219.12 309.269 218.84 309.589 218.6C309.709 218.5 309.889 218.45 310.129 218.45C310.469 218.45 310.789 218.61 311.089 218.93C311.529 219.45 312.169 219.86 313.009 220.16C313.869 220.48 314.779 220.64 315.739 220.64C317.539 220.64 318.959 220.1 319.999 219.02C321.059 217.94 321.589 216.48 321.589 214.64V212.6C320.969 213.42 320.179 214.05 319.219 214.49C318.259 214.91 317.199 215.12 316.039 215.12C313.599 215.12 311.689 214.43 310.309 213.05C308.949 211.65 308.269 209.71 308.269 207.23V201.11C308.269 200.81 308.379 200.56 308.599 200.36C308.819 200.14 309.089 200.03 309.409 200.03C309.729 200.03 309.989 200.14 310.189 200.36C310.409 200.56 310.519 200.81 310.519 201.11V207.23C310.519 209.15 310.999 210.65 311.959 211.73C312.939 212.79 314.299 213.32 316.039 213.32C317.759 213.32 319.089 212.81 320.029 211.79C320.969 210.77 321.439 209.32 321.439 207.44V201.41C321.439 200.97 321.539 200.63 321.739 200.39C321.959 200.13 322.259 200 322.639 200C322.999 200 323.279 200.13 323.479 200.39C323.699 200.63 323.809 200.97 323.809 201.41V214.49C323.809 216.07 323.469 217.46 322.789 218.66C322.129 219.88 321.199 220.82 319.999 221.48C318.799 222.16 317.409 222.5 315.829 222.5Z" fill="#0C0097"/>
</svg>
